<mxfile host="app.diagrams.net" agent="Mozilla/5.0 (Windows NT 10.0; Win64; x64) AppleWebKit/537.36 (KHTML, like Gecko) Chrome/128.0.0.0 Safari/537.36" version="24.7.12">
  <diagram name="Page-1" id="8DD97oOXmWYDZ6XrpE7M">
    <mxGraphModel dx="1235" dy="614" grid="1" gridSize="10" guides="1" tooltips="1" connect="1" arrows="1" fold="1" page="1" pageScale="1" pageWidth="850" pageHeight="1100" math="0" shadow="0">
      <root>
        <mxCell id="0" />
        <mxCell id="1" parent="0" />
        <mxCell id="YcJ7hHiNdpq0fJpyce_z-48" value="" style="rounded=1;whiteSpace=wrap;html=1;absoluteArcSize=1;arcSize=14;strokeWidth=2;" vertex="1" parent="1">
          <mxGeometry x="110" y="50" width="510" height="560" as="geometry" />
        </mxCell>
        <mxCell id="YcJ7hHiNdpq0fJpyce_z-2" value="Order Menu" style="text;strokeColor=none;align=center;fillColor=none;html=1;verticalAlign=middle;whiteSpace=wrap;rounded=0;fontSize=25;" vertex="1" parent="1">
          <mxGeometry x="90" y="70" width="200" height="30" as="geometry" />
        </mxCell>
        <mxCell id="YcJ7hHiNdpq0fJpyce_z-4" value="&lt;b style=&quot;background-color: initial;&quot;&gt;Table X&lt;/b&gt;" style="text;strokeColor=none;align=left;fillColor=none;html=1;verticalAlign=middle;whiteSpace=wrap;rounded=0;fontSize=20;" vertex="1" parent="1">
          <mxGeometry x="120" y="100" width="340" height="30" as="geometry" />
        </mxCell>
        <mxCell id="YcJ7hHiNdpq0fJpyce_z-5" value="&lt;span style=&quot;background-color: initial; font-size: 18px;&quot;&gt;X mins&lt;/span&gt;" style="text;strokeColor=none;align=left;fillColor=none;html=1;verticalAlign=middle;whiteSpace=wrap;rounded=0;fontSize=18;fontStyle=0" vertex="1" parent="1">
          <mxGeometry x="150" y="125" width="340" height="30" as="geometry" />
        </mxCell>
        <mxCell id="YcJ7hHiNdpq0fJpyce_z-6" value="" style="html=1;verticalLabelPosition=bottom;align=center;labelBackgroundColor=#ffffff;verticalAlign=top;strokeWidth=2;strokeColor=#0080F0;shadow=0;dashed=0;shape=mxgraph.ios7.icons.alarm_clock;" vertex="1" parent="1">
          <mxGeometry x="130" y="130" width="17" height="20" as="geometry" />
        </mxCell>
        <mxCell id="YcJ7hHiNdpq0fJpyce_z-8" value="" style="rounded=1;whiteSpace=wrap;html=1;" vertex="1" parent="1">
          <mxGeometry x="130" y="170" width="130" height="80" as="geometry" />
        </mxCell>
        <mxCell id="YcJ7hHiNdpq0fJpyce_z-9" value="Image Food/Drink" style="text;strokeColor=none;align=center;fillColor=none;html=1;verticalAlign=middle;whiteSpace=wrap;rounded=0;fontSize=20;" vertex="1" parent="1">
          <mxGeometry x="165" y="195" width="60" height="30" as="geometry" />
        </mxCell>
        <mxCell id="YcJ7hHiNdpq0fJpyce_z-10" value="Title" style="text;strokeColor=none;align=center;fillColor=none;html=1;verticalAlign=middle;whiteSpace=wrap;rounded=0;fontSize=20;" vertex="1" parent="1">
          <mxGeometry x="345" y="170" width="80" height="30" as="geometry" />
        </mxCell>
        <mxCell id="YcJ7hHiNdpq0fJpyce_z-13" value="" style="rounded=1;whiteSpace=wrap;html=1;absoluteArcSize=1;arcSize=14;strokeWidth=2;" vertex="1" parent="1">
          <mxGeometry x="410" y="202.5" width="30" height="24.999999999999996" as="geometry" />
        </mxCell>
        <mxCell id="YcJ7hHiNdpq0fJpyce_z-11" value="1" style="text;strokeColor=none;align=center;fillColor=none;html=1;verticalAlign=middle;whiteSpace=wrap;rounded=0;fontSize=18;" vertex="1" parent="1">
          <mxGeometry x="415" y="200" width="20" height="30" as="geometry" />
        </mxCell>
        <mxCell id="YcJ7hHiNdpq0fJpyce_z-18" value="" style="shape=mxgraph.mockup.markup.redX;fillColor=#ff0000;html=1;shadow=0;whiteSpace=wrap;strokeColor=none;" vertex="1" parent="1">
          <mxGeometry x="370" y="202.5" width="30" height="25" as="geometry" />
        </mxCell>
        <mxCell id="YcJ7hHiNdpq0fJpyce_z-19" value="Cost" style="text;strokeColor=none;align=center;fillColor=none;html=1;verticalAlign=middle;whiteSpace=wrap;rounded=0;fontSize=20;" vertex="1" parent="1">
          <mxGeometry x="520" y="172.5" width="80" height="30" as="geometry" />
        </mxCell>
        <mxCell id="YcJ7hHiNdpq0fJpyce_z-20" value="" style="endArrow=none;dashed=1;html=1;rounded=0;" edge="1" parent="1">
          <mxGeometry width="50" height="50" relative="1" as="geometry">
            <mxPoint x="130" y="310" as="sourcePoint" />
            <mxPoint x="590" y="310" as="targetPoint" />
          </mxGeometry>
        </mxCell>
        <mxCell id="YcJ7hHiNdpq0fJpyce_z-21" value="Subtotal" style="text;strokeColor=none;align=center;fillColor=none;html=1;verticalAlign=middle;whiteSpace=wrap;rounded=0;fontSize=20;" vertex="1" parent="1">
          <mxGeometry x="120" y="320" width="80" height="30" as="geometry" />
        </mxCell>
        <mxCell id="YcJ7hHiNdpq0fJpyce_z-22" value="Tax" style="text;strokeColor=none;align=center;fillColor=none;html=1;verticalAlign=middle;whiteSpace=wrap;rounded=0;fontSize=20;" vertex="1" parent="1">
          <mxGeometry x="100" y="350" width="80" height="30" as="geometry" />
        </mxCell>
        <mxCell id="YcJ7hHiNdpq0fJpyce_z-23" value="" style="rounded=1;whiteSpace=wrap;html=1;" vertex="1" parent="1">
          <mxGeometry x="130" y="390" width="460" height="40" as="geometry" />
        </mxCell>
        <mxCell id="YcJ7hHiNdpq0fJpyce_z-24" value="Apply Voucher" style="text;strokeColor=none;align=center;fillColor=none;html=1;verticalAlign=middle;whiteSpace=wrap;rounded=0;fontSize=20;" vertex="1" parent="1">
          <mxGeometry x="120" y="395" width="180" height="30" as="geometry" />
        </mxCell>
        <mxCell id="YcJ7hHiNdpq0fJpyce_z-26" value="" style="rounded=1;whiteSpace=wrap;html=1;" vertex="1" parent="1">
          <mxGeometry x="350" y="395" width="230" height="30" as="geometry" />
        </mxCell>
        <mxCell id="YcJ7hHiNdpq0fJpyce_z-27" value="Find Promo" style="text;strokeColor=none;align=center;fillColor=none;html=1;verticalAlign=middle;whiteSpace=wrap;rounded=0;fontSize=18;" vertex="1" parent="1">
          <mxGeometry x="375" y="395" width="180" height="30" as="geometry" />
        </mxCell>
        <mxCell id="YcJ7hHiNdpq0fJpyce_z-28" value="Total" style="text;strokeColor=none;align=center;fillColor=none;html=1;verticalAlign=middle;whiteSpace=wrap;rounded=0;fontSize=20;" vertex="1" parent="1">
          <mxGeometry x="110" y="440" width="80" height="30" as="geometry" />
        </mxCell>
        <mxCell id="YcJ7hHiNdpq0fJpyce_z-29" value="Sub Cost" style="text;strokeColor=none;align=center;fillColor=none;html=1;verticalAlign=middle;whiteSpace=wrap;rounded=0;fontSize=20;" vertex="1" parent="1">
          <mxGeometry x="510" y="320" width="90" height="30" as="geometry" />
        </mxCell>
        <mxCell id="YcJ7hHiNdpq0fJpyce_z-30" value="Tax Cost" style="text;strokeColor=none;align=center;fillColor=none;html=1;verticalAlign=middle;whiteSpace=wrap;rounded=0;fontSize=20;" vertex="1" parent="1">
          <mxGeometry x="515" y="350" width="80" height="30" as="geometry" />
        </mxCell>
        <mxCell id="YcJ7hHiNdpq0fJpyce_z-31" value="Total Cost" style="text;strokeColor=none;align=center;fillColor=none;html=1;verticalAlign=middle;whiteSpace=wrap;rounded=0;fontSize=20;" vertex="1" parent="1">
          <mxGeometry x="500" y="440" width="110" height="30" as="geometry" />
        </mxCell>
        <mxCell id="YcJ7hHiNdpq0fJpyce_z-34" value="" style="rounded=1;whiteSpace=wrap;html=1;" vertex="1" parent="1">
          <mxGeometry x="130" y="540" width="460" height="40" as="geometry" />
        </mxCell>
        <mxCell id="YcJ7hHiNdpq0fJpyce_z-36" value="Checkout" style="text;strokeColor=none;align=center;fillColor=none;html=1;verticalAlign=middle;whiteSpace=wrap;rounded=0;fontSize=20;" vertex="1" parent="1">
          <mxGeometry x="330" y="545" width="60" height="30" as="geometry" />
        </mxCell>
        <mxCell id="YcJ7hHiNdpq0fJpyce_z-39" value="" style="rounded=1;whiteSpace=wrap;html=1;" vertex="1" parent="1">
          <mxGeometry x="152.5" y="480" width="110" height="40" as="geometry" />
        </mxCell>
        <mxCell id="YcJ7hHiNdpq0fJpyce_z-40" value="E-wallet" style="text;strokeColor=none;align=center;fillColor=none;html=1;verticalAlign=middle;whiteSpace=wrap;rounded=0;fontSize=20;" vertex="1" parent="1">
          <mxGeometry x="152.5" y="485" width="110" height="30" as="geometry" />
        </mxCell>
        <mxCell id="YcJ7hHiNdpq0fJpyce_z-42" value="" style="rounded=1;whiteSpace=wrap;html=1;" vertex="1" parent="1">
          <mxGeometry x="302.5" y="480" width="110" height="40" as="geometry" />
        </mxCell>
        <mxCell id="YcJ7hHiNdpq0fJpyce_z-43" value="" style="rounded=1;whiteSpace=wrap;html=1;" vertex="1" parent="1">
          <mxGeometry x="457.5" y="480" width="110" height="40" as="geometry" />
        </mxCell>
        <mxCell id="YcJ7hHiNdpq0fJpyce_z-44" value="Cashier" style="text;strokeColor=none;align=center;fillColor=none;html=1;verticalAlign=middle;whiteSpace=wrap;rounded=0;fontSize=20;" vertex="1" parent="1">
          <mxGeometry x="457.5" y="485" width="110" height="30" as="geometry" />
        </mxCell>
        <mxCell id="YcJ7hHiNdpq0fJpyce_z-45" value="Credit Card" style="text;strokeColor=none;align=center;fillColor=none;html=1;verticalAlign=middle;whiteSpace=wrap;rounded=0;fontSize=20;" vertex="1" parent="1">
          <mxGeometry x="300" y="485" width="110" height="30" as="geometry" />
        </mxCell>
      </root>
    </mxGraphModel>
  </diagram>
</mxfile>
